<svg width="32" height="32" viewBox="0 0 32 32" fill="none" xmlns="http://www.w3.org/2000/svg">
<g clip-path="url(#clip0_2584_383)">
<rect width="32" height="32" fill="white"/>
<path d="M16.9762 25.0478C15.2422 22.8718 14.2222 20.9644 13.8822 19.3324C13.5422 18.0064 13.6782 16.9524 14.2562 16.1704C14.8682 15.2524 15.7862 14.8104 16.9762 14.8104C18.1662 14.8104 19.0842 15.2524 19.6962 16.1704C20.2742 16.9524 20.4102 18.0064 20.0702 19.3324C19.6962 20.9984 18.6762 22.9024 16.9762 25.0478ZM29.291 26.5098C29.053 28.1078 27.965 29.4338 26.469 30.0798C23.579 31.3378 20.7196 29.3318 18.2716 26.6118C22.321 21.5424 23.069 17.5984 21.3316 15.045C20.3116 13.583 18.8496 12.869 16.9762 12.869C13.2022 12.869 11.1248 16.065 11.9408 19.7744C12.4168 21.7804 13.6748 24.0618 15.6808 26.6118C14.4228 28.0058 13.2328 28.9918 12.1788 29.6038C11.3628 30.0458 10.5808 30.3178 9.8328 30.3858C6.3988 30.8958 3.70939 27.5638 4.93339 24.1264C5.10339 23.6844 5.4434 22.8684 6.02139 21.6104L6.0554 21.5424C7.9254 17.459 10.2068 12.835 12.8248 7.69755L12.8928 7.52755L13.6408 6.09955C14.2188 5.04555 14.4568 4.56955 15.3748 3.99155C15.8168 3.71955 16.3608 3.58355 16.9728 3.58355C18.1968 3.58355 19.1488 4.29755 19.5568 4.87555C19.7608 5.18155 19.9988 5.58955 20.3048 6.09955L21.0188 7.49355L21.1208 7.69755C23.7388 12.835 26.0202 17.459 27.8902 21.5424L27.9242 21.5764L28.6042 23.1404L29.0122 24.1264C29.325 24.9118 29.393 25.6938 29.291 26.5098ZM30.855 23.4464C30.617 22.6984 30.209 21.8144 29.699 20.7604V20.7264C27.285 15.589 25.0376 10.965 22.8956 6.81355L22.7596 6.60955C21.2296 3.48155 20.1416 1.60815 16.9762 1.60815C13.8482 1.60815 12.5188 3.78415 11.1588 6.60955L11.0568 6.81355C8.9148 10.965 6.66739 15.589 4.25339 20.7264V20.7944L3.53939 22.3584C3.26739 23.0044 3.13139 23.3444 3.09739 23.4464C1.36339 28.2098 4.9334 32.3918 9.2548 32.3918C9.2888 32.3918 9.4248 32.3918 9.5948 32.3578H10.0708C12.3148 32.0858 14.6302 30.6578 16.9762 28.1044C19.3222 30.6544 21.6376 32.0858 23.8816 32.3578H24.3576C24.5276 32.3918 24.6636 32.3918 24.6976 32.3918C29.019 32.3952 32.589 28.2098 30.855 23.4464Z" fill="white"/>
<path d="M29.3864 22.7101C29.2429 22.3073 29.0752 21.9176 28.9157 21.5565C28.6701 21.0011 28.4129 20.4446 28.1641 19.9067L28.1444 19.864C25.9255 15.0589 23.5439 10.1881 21.0659 5.38701L20.9607 5.18316C20.7079 4.69289 20.4466 4.18596 20.1784 3.68786C19.8604 3.0575 19.4745 2.4636 19.0276 1.91668C18.5245 1.31651 17.8956 0.833822 17.1853 0.502654C16.475 0.171486 15.7005 -9.83959e-05 14.9165 4.23316e-08C14.1325 9.84805e-05 13.3581 0.171877 12.6478 0.503224C11.9376 0.834571 11.3088 1.31742 10.8059 1.91771C10.3595 2.46476 9.97383 3.05853 9.65572 3.68858C9.38521 4.19115 9.12145 4.70278 8.8664 5.19757L8.76872 5.38696C6.29061 10.1884 3.90903 15.0592 1.69015 19.8639L1.65782 19.9338C1.41334 20.463 1.16057 21.0102 0.919073 21.5563C0.75949 21.9171 0.592009 22.3065 0.448355 22.7103C0.0369063 23.8104 -0.094204 24.9953 0.0668098 26.1585C0.237562 27.334 0.713008 28.4447 1.44606 29.3804C2.17911 30.3161 3.14434 31.0444 4.24614 31.4932C5.07835 31.8299 5.96818 32.002 6.86616 32C7.14824 31.9999 7.43008 31.9835 7.71027 31.9509C8.846 31.8062 9.94136 31.4366 10.9321 30.8639C12.2317 30.1338 13.5152 29.0638 14.9173 27.5348C16.3194 29.0638 17.6029 30.1338 18.9025 30.8639C19.8932 31.4367 20.9886 31.8062 22.1243 31.9509C22.4045 31.9835 22.6864 31.9999 22.9685 32C23.8664 32.002 24.7561 31.8299 25.5883 31.4932C26.6901 31.0444 27.6554 30.3161 28.3885 29.3804C29.1216 28.4447 29.5971 27.3341 29.7679 26.1585C29.9287 24.9952 29.7976 23.8103 29.3864 22.7101ZM14.9173 24.377C13.1816 22.1769 12.0678 20.1338 11.677 18.421C11.5169 17.7792 11.4791 17.1131 11.5656 16.4573C11.6339 15.9766 11.8105 15.5176 12.0821 15.1148C12.4163 14.6814 12.8458 14.3304 13.3374 14.0889C13.829 13.8475 14.3696 13.7219 14.9175 13.7219C15.4655 13.722 16.006 13.8476 16.4976 14.0892C16.9892 14.3307 17.4186 14.6817 17.7528 15.1151C18.0244 15.5181 18.201 15.9771 18.2693 16.4579C18.3556 17.114 18.3177 17.7803 18.1573 18.4223C17.7661 20.1349 16.6526 22.1774 14.9173 24.377ZM27.7406 25.8689C27.6212 26.6908 27.2887 27.4674 26.7762 28.1216C26.2636 28.7759 25.5887 29.2852 24.8183 29.599C24.0393 29.9111 23.1939 30.0217 22.3607 29.9205C21.4946 29.8089 20.6599 29.5239 19.9069 29.0824C18.7501 28.4325 17.5791 27.4348 16.2614 25.9712C18.3591 23.3846 19.669 21.0005 20.154 18.877C20.3723 17.984 20.4196 17.0579 20.2935 16.1475C20.1791 15.3632 19.8879 14.615 19.4419 13.9593C18.9194 13.2519 18.2378 12.6768 17.452 12.2805C16.6661 11.8842 15.798 11.6777 14.9175 11.6777C14.0371 11.6777 13.1689 11.8841 12.383 12.2803C11.5971 12.6765 10.9155 13.2515 10.393 13.9589C9.94707 14.6144 9.65591 15.3624 9.5414 16.1465C9.41524 17.0566 9.4623 17.9822 9.68011 18.8749C10.1648 20.9993 11.4748 23.384 13.5732 25.9714C12.2555 27.4348 11.0845 28.4325 9.92769 29.0825C9.17468 29.5239 8.34007 29.809 7.47395 29.9205C6.64065 30.0217 5.79525 29.9111 5.0162 29.599C4.24581 29.2852 3.57092 28.7759 3.05838 28.1217C2.54585 27.4674 2.21345 26.6908 2.09411 25.8689C1.97932 25.0334 2.07701 24.1825 2.37818 23.3946C2.49266 23.0728 2.62663 22.757 2.7926 22.3818C3.0274 21.851 3.27657 21.3115 3.51759 20.7898L3.54996 20.7197C5.75643 15.9419 8.12481 11.0982 10.5894 6.32294L10.6875 6.13283C10.9384 5.64601 11.1979 5.14267 11.4597 4.6563C11.7101 4.15501 12.0132 3.68171 12.3639 3.2444C12.6746 2.86903 13.0646 2.56681 13.5059 2.35934C13.9473 2.15186 14.4291 2.04426 14.9169 2.04422C15.4047 2.04418 15.8866 2.15171 16.3279 2.35911C16.7693 2.56651 17.1593 2.86867 17.4701 3.24399C17.821 3.68097 18.1242 4.15411 18.3744 4.65538C18.6338 5.13742 18.891 5.63623 19.1398 6.11858L19.2452 6.32315C21.7097 11.0979 24.078 15.9415 26.2847 20.7201L26.3046 20.7631C26.5498 21.2936 26.8033 21.8419 27.042 22.382C27.2082 22.7577 27.3424 23.0738 27.4566 23.3944C27.7576 24.1824 27.8553 25.0333 27.7406 25.8689Z" fill="#FF3835"/>
</g>
<defs>
<clipPath id="clip0_2584_383">
<rect width="32" height="32" fill="white"/>
</clipPath>
</defs>
</svg>
