<svg width="66" height="18" viewBox="0 0 66 18" fill="none" xmlns="http://www.w3.org/2000/svg">
<path d="M5.5617 17.4575C4.7626 17.4575 4.0275 17.2973 3.3562 16.977C2.685 16.6567 2.1097 16.2082 1.5982 15.6316C1.0868 15.0551 0.7033 14.3824 0.4156 13.6457C0.1279 12.8769 0 12.0441 0 11.1472C0 10.2503 0.159898 9.38539 0.447498 8.61659C0.735198 7.84789 1.1507 7.17519 1.6622 6.56659C2.1736 5.98999 2.7809 5.50949 3.4841 5.18919C4.1873 4.86889 4.9225 4.70869 5.7535 4.70869C6.5526 4.70869 7.2558 4.86889 7.8951 5.22119C8.5344 5.54159 9.0458 6.02199 9.4613 6.63059L9.5572 5.06109H12.4979V17.1371H9.5572L9.4613 15.3754C9.0458 16.016 8.5024 16.5285 7.7992 16.9129C7.1599 17.2653 6.3928 17.4575 5.5617 17.4575ZM6.3289 14.5746C6.9042 14.5746 7.4156 14.4144 7.8951 14.1261C8.3426 13.8058 8.6942 13.3894 8.9819 12.8769C9.2376 12.3644 9.3654 11.7558 9.3654 11.0831C9.3654 10.4104 9.2376 9.80179 8.9819 9.28929C8.7262 8.77679 8.3426 8.36039 7.8951 8.04009C7.4476 7.71969 6.9042 7.59159 6.3289 7.59159C5.7535 7.59159 5.2421 7.75179 4.7626 8.04009C4.3152 8.36039 3.9636 8.77679 3.6759 9.28929C3.4202 9.80179 3.2923 10.4104 3.2923 11.0831C3.2923 11.7558 3.4202 12.3644 3.6759 12.8769C3.9316 13.3894 4.3152 13.8058 4.7626 14.1261C5.2421 14.4144 5.7535 14.5746 6.3289 14.5746ZM17.5162 1.79379C17.5162 2.14614 17.4523 2.46647 17.2924 2.72272C17.1326 2.97898 16.9089 3.2032 16.6212 3.36339C16.3335 3.52349 16.0139 3.58759 15.6943 3.58759C15.3746 3.58759 15.055 3.52349 14.7673 3.36339C14.4796 3.2032 14.2559 2.97898 14.0961 2.72272C13.9362 2.43443 13.8723 2.14614 13.8723 1.79379C13.8723 1.44144 13.9362 1.12112 14.0961 0.86486C14.2559 0.57657 14.4796 0.38438 14.7673 0.22422C15.055 0.0640603 15.3746 0 15.6943 0C16.0139 0 16.3335 0.0640603 16.6212 0.22422C16.9089 0.38438 17.1326 0.60861 17.2924 0.86486C17.4203 1.12112 17.5162 1.40941 17.5162 1.79379ZM14.0961 17.1051V5.02899H17.2924V17.1051H14.0961ZM25.8268 8.20019V8.23219C25.667 8.16819 25.4752 8.13609 25.3153 8.10409C25.1236 8.07209 24.9637 8.07209 24.772 8.07209C23.877 8.07209 23.2057 8.32829 22.7582 8.87289C22.2788 9.41739 22.055 10.1862 22.055 11.1792V17.1051H18.8587V5.02899H21.7993L21.8952 6.85489C22.2149 6.21419 22.5984 5.73369 23.1418 5.38139C23.6532 5.02899 24.2605 4.86889 24.9637 4.86889C25.1875 4.86889 25.4112 4.90089 25.603 4.93289C25.6989 4.96499 25.7628 4.96499 25.8268 4.99699V8.20019ZM27.1053 17.1051V0.0640602H30.3017V6.56659C30.7492 5.98999 31.2606 5.54149 31.8999 5.18919C32.5392 4.86889 33.2424 4.67669 34.0415 4.67669C34.8405 4.67669 35.5757 4.83679 36.2469 5.15719C36.9182 5.47749 37.4935 5.92589 38.005 6.50249C38.5164 7.07909 38.8999 7.75179 39.1876 8.48849C39.4753 9.25729 39.6031 10.0901 39.6031 10.987C39.6031 11.8839 39.4433 12.7488 39.1557 13.5175C38.868 14.2863 38.4525 14.959 37.941 15.5676C37.4296 16.1442 36.8223 16.6246 36.1191 16.945C35.4159 17.2653 34.6807 17.4254 33.8497 17.4254C33.0506 17.4254 32.3474 17.2653 31.7081 16.9129C31.0688 16.5926 30.5574 16.1121 30.1419 15.5035L30.046 17.0731L27.1053 17.1051ZM33.2743 14.5746C33.8497 14.5746 34.3611 14.4144 34.8405 14.1261C35.288 13.8058 35.6396 13.3894 35.9273 12.8769C36.183 12.3644 36.3109 11.7558 36.3109 11.0831C36.3109 10.4104 36.183 9.80179 35.9273 9.28929C35.6396 8.77679 35.288 8.36039 34.8405 8.04009C34.3931 7.71969 33.8497 7.59159 33.2743 7.59159C32.699 7.59159 32.1876 7.75179 31.7081 8.04009C31.2606 8.36039 30.909 8.77679 30.6213 9.28929C30.3656 9.80179 30.2378 10.4104 30.2378 11.0831C30.2378 11.7558 30.3656 12.3644 30.6213 12.8769C30.877 13.3894 31.2606 13.8058 31.7081 14.1261C32.1876 14.4144 32.699 14.5746 33.2743 14.5746ZM40.8178 17.1051V5.02899H43.7584L43.8543 6.59859C44.2059 6.02199 44.6854 5.57359 45.2927 5.22119C45.9 4.86889 46.6032 4.70869 47.4023 4.70869C48.2973 4.70869 49.0644 4.93289 49.7037 5.34939C50.3749 5.76579 50.8864 6.37439 51.238 7.14319C51.5896 7.91189 51.7813 8.84079 51.7813 9.89789V17.1371H48.585V10.3143C48.585 9.48149 48.3932 8.80879 48.0096 8.32829C47.6261 7.84789 47.1146 7.59159 46.4434 7.59159C45.9639 7.59159 45.5484 7.68769 45.1648 7.91189C44.8132 8.13609 44.5256 8.42439 44.3018 8.84089C44.0781 9.22519 43.9822 9.70569 43.9822 10.1862V17.1051H40.8178ZM53.3795 17.1051V0.0640602H56.5759V6.56659C57.0234 5.98999 57.5348 5.54149 58.1741 5.18919C58.8134 4.86889 59.5166 4.67669 60.3157 4.67669C61.1148 4.67669 61.8499 4.83679 62.5212 5.15719C63.1924 5.47749 63.7677 5.92589 64.279 6.50249C64.791 7.07909 65.174 7.75179 65.462 8.48849C65.75 9.25729 65.877 10.0901 65.877 10.987C65.877 11.8839 65.718 12.7488 65.43 13.5175C65.142 14.2863 64.727 14.959 64.215 15.5676C63.7038 16.1442 63.0965 16.6246 62.3933 16.945C61.6901 17.2653 60.9549 17.4254 60.1239 17.4254C59.3248 17.4254 58.6216 17.2653 57.9823 16.9129C57.343 16.5926 56.8316 16.1121 56.4161 15.5035L56.3202 17.0731L53.3795 17.1051ZM59.5805 14.5746C60.1558 14.5746 60.6673 14.4144 61.1467 14.1261C61.5942 13.8058 61.9458 13.3894 62.2335 12.8769C62.4892 12.3644 62.6171 11.7558 62.6171 11.0831C62.6171 10.4104 62.4892 9.80179 62.2335 9.28929C61.9778 8.77679 61.5942 8.36039 61.1467 8.04009C60.6992 7.71969 60.1558 7.59159 59.5805 7.59159C59.0051 7.59159 58.4937 7.75179 58.0143 8.04009C57.5668 8.36039 57.2152 8.77679 56.9275 9.28929C56.6398 9.80179 56.5439 10.4104 56.5439 11.0831C56.5439 11.7558 56.6718 12.3644 56.9275 12.8769C57.1832 13.3894 57.5668 13.8058 58.0143 14.1261C58.4937 14.4144 58.9732 14.5746 59.5805 14.5746Z" fill="#FF3835"/>
</svg>
